:SAMPLES-PER-SECOND 30
:FULLY-SPECIFIED
:DEGREES
113
root  -52.3503 36.8175 6.73101 -178.212 -6.69991 174.588
RightUpLeg  -14.709 -7.83429 13.6409
RightLeg  41.8954 -12.216 -11.8035
RightFoot  -29.7454 -2.75048 -15.6066
RightToes  2.32829e-010 0 -3.6325e-017
Spine  12.0938 -2.33419 7.46917
Spine1  3.23991 -0.976478 -0.0691386
HEad  -19.6199 -0.590509 0.81458
LeftShoulder1  7.19467 -10.1705 -45.8702
LeftArm  -2.92863 21.3485 -33.1618
LeftForeArm  174.487 -67.1536 -157.35
LeftHand  -0.244104 0.0205437 5.32207
RightShoulder  6.74309 9.73024 44.4973
RightArm  -2.49214 -26.1666 24.3602
RightForeArm  152.432 70.6146 150.09
RightHand  0.0181974 -9.83128 -1.79351
LeftUpLeg  -16.6404 0.890039 6.9671
LeftLeg  73.9303 3.08963 13.1046
LeftFoot  -2.10659 0.251165 -3.01889
LeftToes  -1.53708e-010 -3.96652e-011 -3.29181e-011
114
root  -52.7124 37.2282 4.91399 -177.845 -2.76725 173.976
RightUpLeg  -9.58163 -7.18863 11.5002
RightLeg  37.8967 -10.6039 -9.02004
RightFoot  -29.7984 -2.78149 -15.7809
RightToes  2.32829e-010 0 -3.6325e-017
Spine  11.2863 -0.395748 8.00413
Spine1  3.92062 1.53673 -2.60152
HEad  -19.662 -2.29794 1.16376
LeftShoulder1  7.4882 -10.4052 -46.9639
LeftArm  -2.1496 28.4269 -28.9664
LeftForeArm  171.548 -65.1659 -158.957
LeftHand  -0.244104 0.0205437 5.32207
RightShoulder  7.08455 10.3762 44.5705
RightArm  -3.11196 -18.8133 29.8799
RightForeArm  161.815 69.8008 152.531
RightHand  -0.0641406 -9.39821 0.347394
LeftUpLeg  -21.7669 0.0766993 6.0235
LeftLeg  71.5659 3.37552 12.2009
LeftFoot  -5.36447 0.179554 -2.87966
LeftToes  -1.53708e-010 -3.96652e-011 -3.29181e-011
115
root  -52.9178 37.9625 2.95465 -177.306 0.754305 172.469
RightUpLeg  -4.01068 -5.93353 8.27719
RightLeg  32.0744 -8.68416 -6.09187
RightFoot  -27.4963 -2.3643 -15.2235
RightToes  2.32829e-010 0 -3.6325e-017
Spine  10.4182 2.0845 7.5806
Spine1  3.95024 4.48956 -5.46863
HEad  -19.4911 -4.67977 2.55554
LeftShoulder1  7.29376 -10.0486 -46.9352
LeftArm  1.09299 33.8946 -24.9543
LeftForeArm  170.728 -62.4601 -161.151
LeftHand  -0.244104 0.0205437 5.32207
RightShoulder  6.92386 10.7012 42.4393
RightArm  -1.97063 -14.5882 36.9182
RightForeArm  166.109 67.3762 156.132
RightHand  -0.0580669 -9.34671 0.145152
LeftUpLeg  -25.5655 0.0661878 3.99765
LeftLeg  64.775 4.06188 10.0543
LeftFoot  -7.65731 0.165413 -3.71247
LeftToes  -1.53708e-010 -3.96652e-011 -3.29181e-011
116
root  -53.0422 38.8547 0.905267 -176.449 3.08242 170.689
RightUpLeg  1.00681 -5.9973 4.36195
RightLeg  25.7248 -5.37134 -3.06592
RightFoot  -22.7695 -1.41993 -12.4931
RightToes  2.32829e-010 0 -3.6325e-017
Spine  9.14192 4.27541 6.67366
Spine1  3.3916 7.02721 -8.61524
HEad  -18.2873 -7.22074 5.09539
LeftShoulder1  7.04895 -9.84309 -46.0397
LeftArm  3.98356 38.396 -21.6621
LeftForeArm  172.372 -60.2227 -162.895
LeftHand  -0.244104 0.0205437 5.32207
RightShoulder  6.67833 10.7086 40.8036
RightArm  1.86641 -11.4364 41.057
RightForeArm  164.404 65.1474 158.217
RightHand  -0.00158163 -8.98912 -1.3973
LeftUpLeg  -28.0705 0.3072 1.26853
LeftLeg  53.5928 5.20892 7.98455
LeftFoot  -8.68439 0.15746 -4.5113
LeftToes  -1.53708e-010 -3.96652e-011 -3.29181e-011
117
root  -53.1161 39.7292 -1.16414 -175.456 4.23036 169.329
RightUpLeg  5.07601 -8.52384 0.40876
RightLeg  20.3059 -1.10597 -0.530489
RightFoot  -15.6956 -0.450108 -8.93702
RightToes  2.32829e-010 0 -3.6325e-017
Spine  7.49107 5.71112 5.48045
Spine1  2.84937 8.64372 -11.2742
HEad  -16.4654 -9.95322 6.65308
LeftShoulder1  7.07766 -10.1396 -45.1953
LeftArm  4.50423 42.7739 -19.4996
LeftForeArm  174.301 -58.5897 -164.088
LeftHand  -0.244104 0.0205437 5.32207
RightShoulder  6.54676 10.8082 39.627
RightArm  6.67717 -8.95187 42.0947
RightForeArm  166.058 63.0662 160.194
RightHand  -0.0627189 -8.90376 0.226168
LeftUpLeg  -29.1314 1.90248 -1.7627
LeftLeg  39.1404 6.78683 6.26819
LeftFoot  -8.24479 0.197745 -5.4434
LeftToes  -1.53708e-010 -3.96652e-011 -3.29181e-011
118
root  -53.1722 40.3671 -3.18747 -174.885 4.40973 169.013
RightUpLeg  7.44387 -10.7013 -1.91486
RightLeg  18.7274 1.35792 0.579246
RightFoot  -7.78851 0.129118 -5.81838
RightToes  2.32829e-010 0 -3.6325e-017
Spine  6.09012 6.247 4.5124
Spine1  3.00358 9.23858 -12.4152
HEad  -14.9939 -11.6329 7.23755
LeftShoulder1  7.29381 -10.5514 -45.2143
LeftArm  2.50032 46.0187 -18.912
LeftForeArm  174.402 -57.4696 -164.745
LeftHand  -0.244104 0.0205437 5.32207
RightShoulder  6.4727 11.1902 38.0056
RightArm  10.8493 -7.2972 42.2935
RightForeArm  171.652 61.0411 162.267
RightHand  -0.204398 -9.5231 4.15437
LeftUpLeg  -28.743 6.5476 -5.29489
LeftLeg  24.3545 7.03015 3.86412
LeftFoot  -7.77203 0.266587 -7.11953
LeftToes  -1.53708e-010 -3.96652e-011 -3.29181e-011
119
root  -53.2724 40.5373 -5.16944 -175.191 4.10121 169.699
RightUpLeg  7.31163 -9.52096 -1.76244
RightLeg  23.565 0.91659 0.167278
RightFoot  -2.07279 0.212039 -2.73614
RightToes  2.32829e-010 0 -3.6325e-017
Spine  5.31289 6.10602 4.20055
Spine1  3.94331 9.10337 -12.2773
HEad  -14.6354 -11.6826 7.53597
LeftShoulder1  7.42707 -10.6953 -45.5904
LeftArm  -1.07969 47.1089 -20.3233
LeftForeArm  173.91 -56.9266 -165.004
LeftHand  -0.244104 0.0205437 5.32207
RightShoulder  6.40899 11.5057 36.6935
RightArm  14.38 -6.06646 42.2381
RightForeArm  173.972 60.0398 163.152
RightHand  -0.242189 -9.31796 5.35032
LeftUpLeg  -27.1793 10.2525 -7.51536
LeftLeg  13.2976 7.36454 0.281863
LeftFoot  -8.0318 0.315984 -9.18785
LeftToes  -1.53708e-010 -3.96652e-011 -3.29181e-011
120
root  -53.4487 40.2022 -7.11987 -176.556 4.31048 170.499
RightUpLeg  5.49225 -5.64053 -1.10261
RightLeg  33.8867 -1.06198 -1.02599
RightFoot  -0.0270935 -0.023689 0.307183
RightToes  2.32829e-010 0 -3.6325e-017
Spine  5.38973 5.75233 4.01307
Spine1  5.09 8.78468 -11.8914
HEad  -14.6723 -10.7125 7.74223
LeftShoulder1  7.36939 -10.6518 -45.3658
LeftArm  -4.85787 46.6835 -23.246
LeftForeArm  174.675 -56.7418 -165.167
LeftHand  -0.244104 0.0205437 5.32207
RightShoulder  6.39284 11.4517 36.7424
RightArm  17.3542 -5.01349 41.1831
RightForeArm  171.644 60.301 162.766
RightHand  -0.172241 -8.72613 4.12603
LeftUpLeg  -24.6207 5.04222 -5.18207
LeftLeg  8.80117 14.3093 -2.9487
LeftFoot  -6.80473 0.432032 -9.88109
LeftToes  -1.53708e-010 -3.96652e-011 -3.29181e-011
121
root  -53.673 39.5376 -9.06144 -178.912 5.5029 170.669
RightUpLeg  3.1767 -2.4129 -2.05137
RightLeg  46.7984 -2.74169 -3.50371
RightFoot  -0.528507 -0.179939 1.86399
RightToes  2.32829e-010 0 -3.6325e-017
Spine  6.57634 5.3676 3.13088
Spine1  5.62024 8.35067 -11.2032
HEad  -14.4815 -9.34437 7.20685
LeftShoulder1  7.22338 -10.4895 -44.9677
LeftArm  -7.65514 45.2365 -25.9257
LeftForeArm  175.48 -56.8223 -165.193
LeftHand  -0.244104 0.0205437 5.32207
RightShoulder  6.43101 11.243 37.5786
RightArm  18.9739 -4.71867 39.4086
RightForeArm  169.293 61.3255 161.858
RightHand  -0.174578 -8.78745 4.09268
LeftUpLeg  -23.3588 7.17641 -7.42505
LeftLeg  11.8728 10.6806 -1.67186
LeftFoot  -3.08774 0.529925 -7.34022
LeftToes  -1.53708e-010 -3.96652e-011 -3.29181e-011
122
root  -53.8807 38.7962 -10.9758 178.253 6.76535 170.132
RightUpLeg  0.351109 -0.277639 -4.51379
RightLeg  59.3453 -4.12217 -7.9958
RightFoot  -1.60901 -0.0962175 0.982679
RightToes  2.32829e-010 0 -3.6325e-017
Spine  8.57355 4.69977 1.3978
Spine1  5.26273 7.34781 -9.79841
HEad  -14.9672 -7.97562 5.39059
LeftShoulder1  7.15102 -10.1935 -45.4973
LeftArm  -8.71068 41.6681 -26.2615
LeftForeArm  174.687 -58.0269 -164.446
LeftHand  -0.244104 0.0205437 5.32207
RightShoulder  6.53174 11.1451 38.5202
RightArm  18.5808 -5.80605 38.012
RightForeArm  168.354 64.0312 159.65
RightHand  -0.182236 -8.49715 4.76925
LeftUpLeg  -23.2084 13.9585 -11.7378
LeftLeg  19.7415 1.62431 0.961835
LeftFoot  -0.265203 0.194838 -1.85198
LeftToes  -1.53708e-010 -3.96652e-011 -3.29181e-011
123
root  -54.0205 38.1779 -12.7126 175.862 7.15909 168.905
RightUpLeg  -3.97148 0.878438 -7.83144
RightLeg  69.3227 -4.24129 -12.9954
RightFoot  -2.88778 0.0847181 -1.43136
RightToes  2.32829e-010 0 -3.6325e-017
Spine  10.8207 3.61738 -0.983779
Spine1  4.62908 5.84953 -8.73075
HEad  -16.3447 -6.67881 3.86198
LeftShoulder1  7.23844 -10.038 -46.609
LeftArm  -8.29126 35.47 -24.2347
LeftForeArm  173.349 -61.304 -162.205
LeftHand  -0.244104 0.0205437 5.32207
RightShoulder  6.74819 11.0723 40.1491
RightArm  16.0739 -8.26272 37.5646
RightForeArm  164.327 70.1052 152.201
RightHand  -0.102562 -7.39323 3.29375
LeftUpLeg  -22.7563 12.7387 -12.5126
LeftLeg  28.2993 2.60146 1.93236
LeftFoot  -2.08855 -0.172664 2.35192
LeftToes  -1.53708e-010 -3.96652e-011 -3.29181e-011
124
root  -54.0986 37.8953 -14.2477 174.363 7.29638 167.949
RightUpLeg  -9.58747 1.46499 -10.5858
RightLeg  74.6822 -3.81537 -16.6224
RightFoot  -4.52569 0.165052 -3.25654
RightToes  2.32829e-010 0 -3.6325e-017
Spine  12.8064 2.44871 -2.49412
Spine1  4.06663 4.46741 -8.87021
HEad  -17.626 -5.61201 3.16002
LeftShoulder1  7.41203 -10.2713 -46.9337
LeftArm  -7.58223 28.8796 -22.4148
LeftForeArm  172.182 -65.7943 -158.438
LeftHand  -0.244104 0.0205437 5.32207
RightShoulder  6.9732 10.8251 42.3754
RightArm  11.5564 -11.6073 37.8544
RightForeArm  147.436 78.0238 129.202
RightHand  -0.0655081 -7.67951 1.19946
LeftUpLeg  -21.4794 12.4974 -13.2234
LeftLeg  33.9845 3.90949 3.18317
LeftFoot  -7.06161 -0.0826332 3.11584
LeftToes  -1.53708e-010 -3.96652e-011 -3.29181e-011
